<?xml version="1.0" encoding="UTF-8" standalone="no"?>
<!-- Created with Inkscape (http://www.inkscape.org/) -->

<svg
   version="1.1"
   id="svg2"
   width="735.63202"
   height="586.96936"
   viewBox="0 0 735.63202 586.96936"
   sodipodi:docname="engafement.ai"
   xmlns:inkscape="http://www.inkscape.org/namespaces/inkscape"
   xmlns:sodipodi="http://sodipodi.sourceforge.net/DTD/sodipodi-0.dtd"
   xmlns="http://www.w3.org/2000/svg"
   xmlns:svg="http://www.w3.org/2000/svg">
  <defs
     id="defs6">
    <clipPath
       clipPathUnits="userSpaceOnUse"
       id="clipPath16">
      <path
         d="M 0,440.227 H 551.724 V 0 H 0 Z"
         id="path14" />
    </clipPath>
  </defs>
  <sodipodi:namedview
     id="namedview4"
     pagecolor="#ffffff"
     bordercolor="#000000"
     borderopacity="0.25"
     inkscape:showpageshadow="2"
     inkscape:pageopacity="0.0"
     inkscape:pagecheckerboard="0"
     inkscape:deskcolor="#d1d1d1" />
  <g
     id="g8"
     inkscape:groupmode="layer"
     inkscape:label="engafement"
     transform="matrix(1.3333333,0,0,-1.3333333,0,586.96933)">
    <g
       id="g10">
      <g
         id="g12"
         clip-path="url(#clipPath16)">
        <g
           id="g18"
           transform="translate(171.899,55.4711)">
          <path
             d="m 0,0 -132.248,-0.572 h -0.043 c -5.532,0 -10.044,4.488 -10.068,10.024 -0.184,42.583 33.741,77.474 75.626,77.778 0.189,10e-4 0.378,0.002 0.568,0.002 20.244,0 39.268,-7.831 53.629,-22.091 C 1.92,50.828 9.93,31.731 10.018,11.368 l 0.005,-1.257 C 10.047,4.56 5.551,0.024 0,0 m -6.879,70.846 c -16.021,15.91 -37.277,24.587 -59.913,24.419 -46.302,-0.337 -83.806,-38.848 -83.602,-85.848 0.043,-9.955 8.156,-18.025 18.102,-18.024 0.026,0 0.08,0.007 0.078,0 L 0.035,-8.035 c 9.981,0.043 18.067,8.199 18.024,18.18 l -0.006,1.257 C 17.956,33.914 9.1,55.027 -6.879,70.846"
             style="fill:#e87303;fill-opacity:1;fill-rule:nonzero;stroke:none"
             id="path20" />
        </g>
        <g
           id="g22"
           transform="translate(105.2056,244.0627)">
          <path
             d="m 0,0 h 0.113 c 7.839,0 15.258,-3.613 20.901,-10.181 5.829,-6.783 9.061,-15.861 9.102,-25.56 v -0.002 C 30.162,-45.444 27.009,-54.551 21.238,-61.386 15.624,-68.034 8.191,-71.715 0.31,-71.75 H 0.211 c -16.477,0 -29.935,16.009 -30.019,35.741 C -29.893,-16.227 -16.52,-0.074 0,0 m 0.214,-79.785 h 0.13 c 10.275,0.045 19.876,4.738 27.033,13.216 7.003,8.292 10.83,19.254 10.775,30.864 -0.051,11.606 -3.972,22.531 -11.043,30.76 C 19.914,3.43 10.333,8.035 0.115,8.035 h -0.151 c -20.95,-0.093 -37.911,-19.867 -37.807,-44.078 0.103,-24.152 17.16,-43.745 38.057,-43.742"
             style="fill:#e87303;fill-opacity:1;fill-rule:nonzero;stroke:none"
             id="path24" />
        </g>
        <g
           id="g26"
           transform="translate(345.1169,27.6828)">
          <path
             d="m 0,0 -132.249,-0.572 h -0.045 c -2.672,0 -5.187,1.035 -7.086,2.917 -1.909,1.894 -2.968,4.417 -2.979,7.107 -0.185,42.583 33.741,77.473 75.626,77.777 0.191,0.001 0.38,0.002 0.571,0.002 20.242,0 39.266,-7.831 53.625,-22.09 C 1.92,50.827 9.93,31.73 10.018,11.367 l 0.005,-1.256 C 10.047,4.56 5.551,0.024 0,0 m -6.879,70.846 c -16.021,15.911 -37.274,24.616 -59.913,24.418 -46.302,-0.336 -83.806,-38.846 -83.602,-85.847 0.021,-4.835 1.923,-9.373 5.357,-12.777 3.415,-3.386 7.937,-5.247 12.742,-5.247 h 0.081 L 0.035,-8.035 c 9.981,0.043 18.067,8.199 18.024,18.18 l -0.006,1.257 C 17.956,33.913 9.1,55.025 -6.879,70.846"
             style="fill:#e87303;fill-opacity:1;fill-rule:nonzero;stroke:none"
             id="path28" />
        </g>
        <g
           id="g30"
           transform="translate(308.54,180.5332)">
          <path
             d="m 0,0 v -0.002 c 0.046,-9.701 -3.107,-18.808 -8.878,-25.643 -5.614,-6.648 -13.048,-10.329 -20.928,-10.364 h -0.099 c -16.477,0 -29.935,16.009 -30.02,35.741 -0.084,19.782 13.288,35.935 29.809,36.008 h 0.114 c 7.838,0 15.257,-3.612 20.9,-10.18 C -3.274,18.777 -0.042,9.7 0,0 m -30,43.776 h -0.152 C -51.102,43.683 -68.063,23.91 -67.96,-0.303 c 0.103,-24.151 17.161,-43.743 38.057,-43.741 h 0.13 c 10.276,0.046 19.876,4.739 27.034,13.216 7.003,8.292 10.829,19.254 10.774,30.864 -0.05,11.607 -3.971,22.531 -11.042,30.76 -7.196,8.375 -16.776,12.98 -26.993,12.98"
             style="fill:#e87303;fill-opacity:1;fill-rule:nonzero;stroke:none"
             id="path32" />
        </g>
        <g
           id="g34"
           transform="translate(518.6784,59.8238)">
          <path
             d="m 0,0 -132.249,-0.572 h -0.045 c -2.672,0 -5.187,1.035 -7.086,2.918 -1.91,1.893 -2.968,4.417 -2.979,7.106 -0.184,42.583 33.741,77.473 75.626,77.777 0.191,0.001 0.38,0.002 0.571,0.002 20.242,0 39.266,-7.831 53.625,-22.09 C 1.92,50.827 9.93,31.73 10.018,11.367 l 0.005,-1.256 C 10.047,4.56 5.551,0.024 0,0 M 18.053,11.402 C 17.956,33.913 9.1,55.025 -6.879,70.846 c -15.873,15.763 -36.902,24.42 -59.282,24.42 -0.209,0 -0.421,0 -0.631,-0.002 -46.302,-0.336 -83.806,-38.846 -83.602,-85.847 0.02,-4.835 1.923,-9.373 5.357,-12.777 3.415,-3.386 7.937,-5.247 12.742,-5.247 h 0.081 L 0.035,-8.035 c 9.981,0.043 18.067,8.199 18.024,18.18 z"
             style="fill:#e87303;fill-opacity:1;fill-rule:nonzero;stroke:none"
             id="path36" />
        </g>
        <g
           id="g38"
           transform="translate(472.9995,238.234)">
          <path
             d="m 0,0 c 5.828,-6.783 9.06,-15.86 9.102,-25.56 v -0.001 c 0.046,-9.702 -3.107,-18.809 -8.878,-25.643 -5.615,-6.649 -13.047,-10.33 -20.928,-10.365 h -0.099 c -16.477,0 -29.935,16.009 -30.02,35.741 -0.084,19.782 13.288,35.936 29.809,36.009 H -20.9 C -13.062,10.181 -5.643,6.568 0,0 M -21.05,18.216 C -42,18.123 -58.961,-1.65 -58.858,-25.863 c 0.103,-24.151 17.161,-43.743 38.057,-43.741 h 0.13 c 10.276,0.046 19.877,4.739 27.034,13.216 7.003,8.293 10.829,19.254 10.774,30.864 -0.05,11.607 -3.971,22.531 -11.042,30.76 -7.196,8.375 -16.775,12.98 -26.993,12.98 z"
             style="fill:#e87303;fill-opacity:1;fill-rule:nonzero;stroke:none"
             id="path40" />
        </g>
        <g
           id="g42"
           transform="translate(97.8993,404.5748)">
          <path
             d="M 0,0 C 0,3.708 3.568,6.726 7.955,6.726 H 144.57 c 4.387,0 7.956,-3.018 7.956,-6.726 v -47.487 l -30.07,-0.141 c -3.369,-0.015 -6.551,-1.226 -8.959,-3.408 -2.528,-2.292 -3.911,-5.365 -3.896,-8.652 l 0.172,-36.671 H 46.532 c -7.151,0 -13.874,-2.783 -18.927,-7.838 L 0,-131.801 Z m 198.471,20.892 c 0,3.708 3.568,6.725 7.955,6.725 h 136.615 c 4.387,0 7.955,-3.017 7.955,-6.725 v -131.801 l -27.604,27.604 c -5.054,5.055 -11.776,7.838 -18.928,7.838 h -67.463 l -0.077,16.376 c -0.031,6.596 -5.812,11.94 -12.901,11.94 h -0.066 l -25.486,-0.12 z m 12.033,-156.794 c -3.946,3.908 -9.17,6.056 -14.719,6.056 h -0.102 l -72.84,-0.341 h -0.029 c -2.675,0 -4.856,1.764 -4.866,3.942 l -0.121,25.847 c 0,0.007 0.002,0.014 0.002,0.022 0,0.008 -0.002,0.015 -0.002,0.023 l -0.191,40.702 c -0.005,0.977 0.442,1.922 1.258,2.661 0.937,0.849 2.215,1.321 3.599,1.327 l 101.502,0.476 h 0.028 c 2.675,0 4.856,-1.764 4.866,-3.942 l 0.447,-95.43 z m -216.059,-9.31 c 0.497,-0.207 1.019,-0.306 1.537,-0.306 1.045,0 2.073,0.408 2.841,1.177 l 34.464,34.463 c 3.536,3.536 8.24,5.484 13.245,5.484 h 63.278 l 0.103,-21.888 c 0.031,-6.596 5.812,-11.94 12.901,-11.94 h 0.066 l 72.841,0.341 c 3.474,0.032 6.683,-1.309 9.128,-3.73 l 25.723,-25.483 c 0.768,-0.761 1.789,-1.164 2.828,-1.164 0.524,0 1.052,0.102 1.554,0.313 1.499,0.629 2.471,2.099 2.463,3.724 l -0.378,80.719 h 67.425 c 5.005,0 9.71,-1.948 13.246,-5.485 l 34.463,-34.462 c 0.769,-0.77 1.796,-1.177 2.842,-1.177 0.517,0 1.04,0.099 1.537,0.306 1.501,0.621 2.48,2.086 2.48,3.711 V 20.892 c 0,8.138 -7.174,14.761 -15.991,14.761 H 206.426 c -8.817,0 -15.99,-6.623 -15.99,-14.761 v -68.201 l -29.875,-0.14 V 0 c 0,8.139 -7.173,14.761 -15.991,14.761 H 7.955 C -0.862,14.761 -8.035,8.139 -8.035,0 v -141.501 c 0,-1.625 0.979,-3.09 2.48,-3.711"
             style="fill:#e87303;fill-opacity:1;fill-rule:nonzero;stroke:none"
             id="path44" />
        </g>
        <g
           id="g46"
           transform="translate(296.883,311.1053)">
          <path
             d="m 0,0 c -3.152,-6.453 -16.787,-16.876 -25.193,-22.633 -8.399,5.746 -22.021,16.149 -25.169,22.598 -4.175,8.549 -0.569,13.639 -0.455,13.798 0.032,0.04 0.063,0.081 0.093,0.122 2.942,4.041 6.127,6.162 9.468,6.306 0.131,0.006 0.261,0.008 0.391,0.008 6.267,0 12.006,-6.392 12.652,-7.135 0.763,-0.878 1.87,-1.382 3.033,-1.382 1.163,0 2.27,0.504 3.033,1.382 0.659,0.758 6.611,7.395 13.038,7.127 3.342,-0.144 6.528,-2.265 9.471,-6.306 C 0.394,13.841 0.384,13.853 0.418,13.811 0.573,13.6 4.169,8.541 0,0 m -8.764,28.218 c -6.979,0.301 -12.864,-3.668 -16.417,-6.83 -3.553,3.161 -9.442,7.125 -16.42,6.83 -5.909,-0.254 -11.164,-3.485 -15.619,-9.603 -0.845,-1.149 -6.503,-9.601 -0.362,-22.176 5.061,-10.366 26.028,-24.533 30.18,-27.268 0.67,-0.442 1.44,-0.662 2.21,-0.662 0.77,0 1.54,0.221 2.211,0.664 4.155,2.739 25.136,16.931 30.201,27.301 6.129,12.554 0.502,20.968 -0.363,22.141 -4.456,6.119 -9.712,9.35 -15.621,9.603"
             style="fill:#e87303;fill-opacity:1;fill-rule:nonzero;stroke:none"
             id="path48" />
        </g>
        <path
           d="m 344.801,388.911 h 12.92 v -42.4 h -12.92 z m 36.589,18.008 c 0.203,1.88 0.04,4.235 -0.133,6.729 -0.166,2.39 -0.39,5.623 -0.062,7.117 0.599,0.687 2.808,1.843 4.473,1.475 1.165,-0.254 1.944,-1.5 2.317,-3.703 1.712,-10.138 1.252,-12.043 0.557,-14.926 -0.092,-0.381 -0.187,-0.774 -0.281,-1.193 -0.795,-1.751 -2.233,-5.809 -0.281,-8.974 0.688,-1.117 2.368,-2.991 5.883,-2.991 l 27.392,0.016 c 1.418,0 2.37,-0.973 2.37,-2.421 0,-0.765 -0.399,-1.524 -1.069,-2.041 -1.028,-0.728 -1.699,-1.926 -1.699,-3.281 0,-2.219 1.799,-4.018 4.018,-4.018 1.424,0 2.582,-1.158 2.582,-2.582 0,-1.424 -1.158,-2.583 -2.582,-2.583 -2.219,0 -4.018,-1.799 -4.018,-4.018 0,-1.472 0.793,-2.76 1.974,-3.46 0.508,-0.482 0.794,-1.145 0.794,-1.863 0,-1.424 -1.159,-2.582 -2.582,-2.582 -2.219,0 -4.018,-1.799 -4.018,-4.018 0,-2.172 1.725,-3.943 3.88,-4.015 0.082,-0.405 0.165,-1.166 0.165,-2.586 0,-1.424 -1.159,-2.582 -2.582,-2.582 -0.149,0 -0.297,-0.008 -0.444,-0.024 -10.878,-1.208 -41.213,-3.739 -50.816,-0.986 -0.293,0.085 -0.825,0.294 -1.472,0.608 v 35.048 c 8.627,1.417 13.684,5.744 15.634,23.854 m -36.781,-68.444 h 13.814 c 1.957,0 3.734,0.674 5.05,1.764 0.544,-0.226 1.064,-0.416 1.53,-0.551 4.029,-1.155 10.406,-1.563 17.398,-1.563 15.039,0 32.916,1.885 36.334,2.262 5.741,0.131 10.37,4.842 10.37,10.614 0,2.161 -0.255,3.994 -0.762,5.498 2.042,1.937 3.317,4.674 3.317,7.703 0,1.147 -0.187,2.274 -0.542,3.339 2.65,1.933 4.375,5.061 4.375,8.585 0,3.529 -1.731,6.661 -4.388,8.593 0.363,1.066 0.555,2.19 0.555,3.329 0,5.864 -4.57,10.456 -10.407,10.456 l -25.91,-0.014 c 0.1,0.287 0.215,0.572 0.333,0.814 0.154,0.306 0.268,0.63 0.34,0.964 0.112,0.526 0.227,1.003 0.337,1.459 0.956,3.96 1.445,6.956 -0.446,18.149 -1.053,6.224 -4.874,10.129 -10.222,10.446 -5.272,0.328 -10.943,-2.993 -12.143,-7.072 -0.814,-2.762 -0.554,-6.522 -0.301,-10.158 0.141,-2.035 0.286,-4.139 0.16,-5.311 -1.478,-13.724 -4.199,-15.818 -7.663,-16.562 -0.193,3.286 -3.268,5.727 -7.315,5.727 h -13.814 c -4.471,0 -7.844,-2.601 -7.844,-6.051 v -46.047 c 0,-3.812 4.056,-6.373 7.844,-6.373"
           style="fill:#e87303;fill-opacity:1;fill-rule:nonzero;stroke:none"
           id="path50" />
        <g
           id="g52"
           transform="translate(144.6164,358.9669)">
          <path
             d="m 0,0 h 24.57 v -25.713 c 0,-2.219 1.798,-4.017 4.017,-4.017 2.219,0 4.018,1.798 4.018,4.017 V 0 h 26.856 c 2.219,0 4.018,1.798 4.018,4.018 0,2.219 -1.799,4.017 -4.018,4.017 H 32.605 v 25.713 c 0,2.219 -1.799,4.018 -4.018,4.018 -2.219,0 -4.017,-1.799 -4.017,-4.018 V 8.035 H 0 C -2.219,8.035 -4.018,6.237 -4.018,4.018 -4.018,1.798 -2.219,0 0,0"
             style="fill:#e87303;fill-opacity:1;fill-rule:nonzero;stroke:none"
             id="path54" />
        </g>
      </g>
    </g>
  </g>
</svg>
