<?xml version="1.0" encoding="UTF-8"?>
<svg id="Calque_1" xmlns="http://www.w3.org/2000/svg" viewBox="0 0 300 300">
  <defs>
    <style>
      .cls-1 {
        fill: none;
        stroke: #e97406;
        stroke-miterlimit: 10;
        stroke-width: 6px;
      }
    </style>
  </defs>
  <path class="cls-1" d="M62.92,192.47l78.96-76.67c2.05-1.99,5.25-2.13,7.46-.32,7.35,5.99,23.53,19.27,34.47,28.8,17.3,15.07,49.36-3.57,33.92-19.5-19.51-20.13-24.89-23.95-66.91-66.68C67.8-26.33-39.63,77.13,20.76,147.8c33.42,39.11,103.96,104.14,125.09,123.43,3.41,3.11,8.67,3,11.94-.27l117.96-117.63s52.38-58.48-7.29-108.15c-58.03-48.3-117.65,12.91-117.65,12.91"/>
  <path class="cls-1" d="M149.83,149.43c4.41-4.1-65.17,64.37-65.17,64.37"/>
  <path class="cls-1" d="M171.64,170.97c1.85-1.64-64.28,63.76-64.28,63.76"/>
  <path class="cls-1" d="M193.72,192.92c2.36-2.16-62.94,62.72-62.94,62.72"/>
</svg>